<?xml version="1.0" standalone="no"?>
<!DOCTYPE svg PUBLIC "-//W3C//DTD SVG 1.1//EN" "http://www.w3.org/Graphics/SVG/1.1/DTD/svg11.dtd" >
<svg xmlns="http://www.w3.org/2000/svg">
<metadata></metadata>
<defs>
<font id="avantgardemditcttbold" horiz-adv-x="1024" >
<font-face units-per-em="2048" ascent="1638" descent="-410" />
<missing-glyph horiz-adv-x="512" />
<glyph horiz-adv-x="0" />
<glyph unicode="&#xd;" horiz-adv-x="512" />
<glyph unicode=" "  horiz-adv-x="512" />
<glyph unicode="&#x09;" horiz-adv-x="512" />
<glyph unicode="&#xa0;" horiz-adv-x="512" />
<glyph unicode="!" horiz-adv-x="604" d="M143 0v313h318v-313h-318zM143 451v915h318v-915h-318z" />
<glyph unicode="&#x22;" horiz-adv-x="835" d="M84 1366h289l-49 -549h-191zM463 1366h289l-50 -549h-190z" />
<glyph unicode="#" horiz-adv-x="1228" d="M16 375l35 233h209l29 176h-207l35 234h207l57 348h262l-55 -348h178l55 348h266l-55 -348h205l-35 -234h-207l-26 -176h209l-37 -233h-209l-60 -375h-266l60 375h-179l-59 -375h-264l61 375h-209zM524 608h178l27 176h-178z" />
<glyph unicode="$" horiz-adv-x="1126" d="M135 393v21h316q12 -131 108 -131q45 0 76 31.5t31 78.5q0 100 -170 162l-62 23q-289 106 -289 360q0 139 78 236.5t217 136.5v186h250v-186q115 -29 182 -115q76 -98 76 -217v-18h-286q-8 117 -101 116q-45 0 -72.5 -28.5t-27.5 -75.5q0 -100 184 -166l64 -23 q127 -45 199.5 -141t72.5 -215q0 -129 -78 -229.5t-213 -143.5v-194h-250v186q-150 31 -223 125q-82 102 -82 221z" />
<glyph unicode="%" horiz-adv-x="1638" d="M61 1059q0 145 95.5 239.5t238.5 94.5t239.5 -94.5t96.5 -235.5q0 -143 -95.5 -237.5t-238.5 -94.5q-145 0 -240.5 93.5t-95.5 234.5zM274 1063q0 -53 36 -90t87 -37t86 37t35 90q0 51 -36 88t-85 37q-51 0 -87 -36t-36 -89zM424 0l573 1366h217l-573 -1366h-217z M907 299q0 145 95.5 240.5t240.5 95.5q143 0 238.5 -94.5t95.5 -237.5q0 -141 -95.5 -235.5t-238.5 -94.5q-145 0 -240.5 92.5t-95.5 233.5zM1120 305q0 -55 35 -92t88 -37q51 0 86 37t35 90t-35 90t-86 37t-87 -37t-36 -88z" />
<glyph unicode="&#x26;" horiz-adv-x="1351" d="M61 369q0 180 168 313q27 20 84 63q-129 129 -129 295q0 150 109.5 251.5t269.5 101.5q154 0 257.5 -96.5t103.5 -239.5q0 -178 -191 -314l162 -161l100 223h322l-105 -254q-41 -100 -102 -182l186 -191l-209 -205l-161 166q-102 -90 -200.5 -128t-207.5 -38 q-193 0 -325 114t-132 282zM397 401q0 -59 44 -97t114 -38q98 0 166 74l-219 221q-104 -86 -105 -160zM481 1055q0 -63 78 -148q86 84 86 152q0 88 -80 88q-35 0 -59.5 -26.5t-24.5 -65.5z" />
<glyph unicode="'" horiz-adv-x="456" d="M84 1366h289l-49 -549h-191z" />
<glyph unicode="(" horiz-adv-x="761" d="M61 512q0 223 100.5 423t280.5 333q109 80 265 139v-305q-143 -78 -233.5 -242t-90.5 -350q0 -184 90 -348t234 -240v-305q-156 59 -265 139q-180 133 -280.5 333t-100.5 423z" />
<glyph unicode=")" horiz-adv-x="761" d="M55 -78q143 76 233.5 241t90.5 351q0 184 -90 348t-234 240v305q156 -59 264 -139q180 -133 280.5 -333t100.5 -423t-100 -423t-281 -333q-109 -80 -264 -139v305z" />
<glyph unicode="*" horiz-adv-x="1126" d="M156 993l67 203l236 -88l-6 258h221l-12 -258l237 88l72 -203l-244 -73l154 -203l-172 -131l-150 213l-147 -213l-172 131l159 203z" />
<glyph unicode="+" d="M68 575v240h315v315h258v-315h315v-240h-315v-315h-258v315h-315z" />
<glyph unicode="," horiz-adv-x="536" d="M109 0v313h319v-387q0 -100 -52 -161.5t-136 -61.5h-131v164h63q80 0 80 70v63h-143z" />
<glyph unicode="-" horiz-adv-x="518" d="M0 395v260h518v-260h-518z" />
<glyph unicode="." horiz-adv-x="536" d="M109 0v313h319v-313h-319z" />
<glyph unicode="/" horiz-adv-x="864" d="M-39 -342l535 1708h301l-535 -1708h-301z" />
<glyph unicode="0" horiz-adv-x="1126" d="M53 483v398q0 252 187 395q152 117 327 117q143 0 276.5 -84t186.5 -209q43 -100 43 -219v-398q0 -217 -145.5 -363.5t-358.5 -146.5q-143 0 -276.5 81t-190.5 204q-49 104 -49 225zM401 483q0 -202 162 -202t162 202v400q0 203 -162 202q-162 0 -162 -202v-400z" />
<glyph unicode="1" horiz-adv-x="1126" d="M213 1071v295h571v-1366h-348v1071h-223z" />
<glyph unicode="2" horiz-adv-x="1126" d="M72 868q4 121 20.5 184.5t59.5 129.5q139 211 423 211q199 0 331 -114t132 -286q0 -229 -211 -467q-80 -88 -243 -233h463v-293h-963v272l53 33q170 104 299 230q61 59 127 143q127 162 127 274q0 59 -36 96t-93 37q-145 0 -158 -217h-331z" />
<glyph unicode="3" horiz-adv-x="1120" d="M47 406h352q31 -125 156 -125q68 0 110 36.5t42 98.5q0 137 -185 137h-123v256h58q172 0 172 158q0 119 -97 118q-100 0 -106 -116h-344q4 190 132 307t335 117q182 0 305 -106.5t123 -266.5q0 -190 -180 -289q258 -84 258 -330q0 -176 -148.5 -302t-357.5 -126 q-164 0 -290 69.5t-173 186.5q-29 72 -39 177z" />
<glyph unicode="4" horiz-adv-x="1126" d="M20 240v256l611 870h325v-852h150v-274h-150v-240h-335v240h-601zM369 514h274v428z" />
<glyph unicode="5" horiz-adv-x="1126" d="M35 367h350q66 -86 162 -86q74 0 129 53t55 127q0 78 -53 129t-135 51q-129 0 -178 -119l-281 70l117 774h755v-295h-487l-31 -186q80 43 185 43q195 0 325.5 -132t130.5 -327q0 -211 -150.5 -353.5t-375.5 -142.5q-201 0 -343 106.5t-175 287.5z" />
<glyph unicode="6" horiz-adv-x="1126" d="M27 500q0 180 127 366l340 500h403l-301 -416q55 8 86 8q176 0 296 -133t120 -329q0 -225 -151.5 -374t-381.5 -149q-225 0 -381.5 153t-156.5 374zM371 469q0 -80 55 -134t135 -54q78 0 132.5 53t54.5 131t-54.5 132t-136.5 54q-80 0 -133 -52t-53 -130z" />
<glyph unicode="7" horiz-adv-x="1126" d="M125 1071v295h891v-268l-481 -1098h-383l503 1071h-530z" />
<glyph unicode="8" horiz-adv-x="1126" d="M66 412q0 248 213 340q-133 106 -134 256q0 166 119 275.5t299 109.5q178 0 297 -108.5t119 -272.5q0 -154 -133 -260q215 -92 215 -340q0 -182 -144.5 -310.5t-351.5 -128.5t-353 129t-146 310zM414 438q0 -70 44 -113.5t109 -43.5q59 0 102.5 46t43.5 109 q0 66 -43.5 111t-106.5 45t-106 -44t-43 -110zM436 979q0 -51 36 -86t89 -35t90 38t37 91q0 51 -36 87t-87 36q-53 0 -91 -36t-38 -89v-6z" />
<glyph unicode="9" horiz-adv-x="1126" d="M29 885q0 217 151.5 362.5t378.5 145.5q236 0 388.5 -150.5t152.5 -384.5q0 -168 -96 -317l-349 -541h-397l307 424q-47 -14 -92 -14q-190 0 -317 135t-127 340zM375 905q0 -76 55 -131t133 -55t132.5 53t54.5 131q0 76 -55.5 129t-133.5 53q-72 0 -126 -50t-58 -120 q0 -4 -2 -10z" />
<glyph unicode=":" horiz-adv-x="536" d="M109 0v313h319v-313h-319zM109 711v313h319v-313h-319z" />
<glyph unicode=";" horiz-adv-x="536" d="M109 0v313h319v-387q0 -100 -52 -161.5t-136 -61.5h-131v164h63q80 0 80 70v63h-143zM109 711v313h319v-313h-319z" />
<glyph unicode="&#x3c;" d="M68 575v218l888 450v-258l-614 -303l612 -303l2 -254z" />
<glyph unicode="=" d="M68 408v225h888v-225h-888zM68 760v225h888v-225h-888z" />
<glyph unicode="&#x3e;" d="M68 125v256l614 303l-612 303l-2 256l888 -450v-220z" />
<glyph unicode="?" horiz-adv-x="1015" d="M27 934q0 201 137 330t348 129q186 0 314 -114t128 -278q0 -102 -53 -190q-39 -66 -156 -172q-82 -76 -109.5 -116t-31.5 -89h-319q2 86 39.5 150.5t150.5 175.5q125 121 125 203q0 114 -106 114q-68 0 -96.5 -41t-30.5 -137h-338q-2 16 -2 35zM285 0v313h319v-313h-319z " />
<glyph unicode="@" horiz-adv-x="1501" d="M68 672q0 301 208.5 509t509.5 208q279 0 463.5 -171t184.5 -432q0 -186 -102.5 -329.5t-233.5 -143.5q-129 0 -160 113q-90 -129 -254 -129q-123 0 -206 92t-83 229q0 164 107.5 287t251.5 123q137 0 200 -100l15 80l178 -2l-76 -390q-12 -63 -12 -90q0 -66 47 -65 q49 0 94 65q76 111 76 260q0 195 -134 319t-345 124q-236 0 -395.5 -162t-159.5 -399q0 -172 91 -311.5t234 -188.5q98 -33 230 -33q195 0 372 64l41 -160q-180 -63 -417 -64q-315 0 -510 185q-215 203 -215 512zM598 627q0 -66 38 -107t97 -41q72 0 124 65.5t52 153.5v9 q0 59 -37.5 97t-93.5 38q-72 0 -126 -63.5t-54 -151.5z" />
<glyph unicode="A" horiz-adv-x="1351" d="M-6 0l547 1366h276l543 -1366h-379l-66 199h-475l-71 -199h-375zM537 475h284l-141 467z" />
<glyph unicode="B" horiz-adv-x="1181" d="M117 0v1366h420q170 0 252.5 -16.5t136.5 -59.5q129 -102 129 -282q0 -184 -158 -277q225 -76 225 -317q0 -178 -125 -295q-78 -72 -165.5 -95.5t-282.5 -23.5h-432zM451 307h163q174 0 174 129q0 119 -174 119h-163v-248zM451 846h122q147 0 148 108q0 104 -148 105 h-122v-213z" />
<glyph unicode="C" horiz-adv-x="1507" d="M59 686q0 297 207 502t508 205q397 0 606 -330q72 -113 88 -217h-364q-41 111 -130 175t-202 64q-156 0 -260 -114.5t-104 -284.5q0 -172 105 -288.5t261 -116.5q219 0 330 229h364q-57 -242 -248.5 -389.5t-441.5 -147.5q-301 0 -510 207t-209 506z" />
<glyph unicode="D" horiz-adv-x="1355" d="M117 0v1366h458q272 0 431 -98q96 -59 165 -158q125 -174 125 -422q0 -311 -176 -499.5t-467 -188.5h-536zM465 307h149q334 0 334 371q0 182 -86 281.5t-246 99.5h-151v-752z" />
<glyph unicode="E" horiz-adv-x="960" d="M117 0v1366h757v-307h-423v-211h411v-307h-411v-234h423v-307h-757z" />
<glyph unicode="F" horiz-adv-x="909" d="M117 0v1366h745v-307h-411v-232h397v-307h-397v-520h-334z" />
<glyph unicode="G" horiz-adv-x="1570" d="M59 688q0 299 211 502t521 203q233 0 427.5 -138.5t251.5 -347.5h-391q-96 178 -299 178q-160 0 -266 -109.5t-106 -273.5q0 -190 108.5 -306.5t288.5 -116.5q115 0 195.5 58t105.5 161h-406v278h809q4 -66 4 -69q0 -313 -209.5 -523.5t-521.5 -210.5q-303 0 -513 208 t-210 507z" />
<glyph unicode="H" horiz-adv-x="1374" d="M117 0v1366h348v-512h446v512h349v-1366h-349v547h-446v-547h-348z" />
<glyph unicode="I" horiz-adv-x="579" d="M117 0v1366h348v-1366h-348z" />
<glyph unicode="J" horiz-adv-x="1032" d="M0 438h371q8 -157 105 -157h1q105 0 105 172v913h348v-827q0 -137 -10 -203q-16 -113 -74 -184q-139 -178 -387 -179q-147 0 -265 73t-161 192q-33 90 -33 200z" />
<glyph unicode="K" horiz-adv-x="1234" d="M117 0v1366h348v-616l389 616h367l-455 -682l483 -684h-409l-375 590v-590h-348z" />
<glyph unicode="L" horiz-adv-x="894" d="M117 0v1366h348v-1059h403v-307h-751z" />
<glyph unicode="M" horiz-adv-x="1673" d="M117 0v1366h448l271 -899l270 899h450v-1366h-321l12 1026l-295 -1026h-231l-295 1026l10 -1026h-319z" />
<glyph unicode="N" horiz-adv-x="1384" d="M117 0v1366h299l532 -860l-14 860h334v-1366h-303l-529 829l15 -829h-334z" />
<glyph unicode="O" horiz-adv-x="1558" d="M59 680q0 303 206 508t511 205t515 -206t210 -505t-210 -504t-515 -205q-303 0 -510 204t-207 503zM408 686q0 -174 107.5 -289.5t268.5 -115.5q156 0 262.5 115.5t106.5 283.5q0 172 -107.5 288.5t-265.5 116.5q-160 0 -266 -114.5t-106 -284.5z" />
<glyph unicode="P" horiz-adv-x="1183" d="M117 0v1366h446q297 0 420 -102q160 -133 160 -363q0 -221 -144 -354q-127 -119 -399 -119h-149v-428h-334zM451 737h141q217 0 217 160q0 162 -231 162h-127v-322z" />
<glyph unicode="Q" horiz-adv-x="1566" d="M59 676q0 301 208 509t509 208q309 0 521 -207t212 -510q0 -201 -116 -377q53 -49 149 -49q4 0 12 2h17v-277l-86 -4q-217 0 -320 109q-176 -106 -370 -107q-311 0 -523.5 203t-212.5 500zM410 741q106 45 194 45h3q156 0 319 -114q100 -70 188 -178q47 115 47 202 q0 170 -108.5 279.5t-276.5 109.5q-143 0 -241.5 -92t-124.5 -252zM444 510q43 -102 134.5 -165.5t193.5 -63.5q72 0 146 51q-90 117 -197 166q-74 34 -150 34h-4q-55 0 -123 -22z" />
<glyph unicode="R" horiz-adv-x="1200" d="M117 0v1366h432q174 0 263 -20.5t157 -77.5q168 -139 168 -375q0 -170 -92.5 -285.5t-247.5 -142.5l370 -465h-399l-317 442v-442h-334zM451 680h122q227 0 228 192q0 186 -223 187h-127v-379z" />
<glyph unicode="S" horiz-adv-x="1056" d="M29 406v45h350q0 -84 38 -134.5t103 -50.5q57 0 96 38t39 93q0 88 -145 148l-158 65q-98 43 -164 97q-137 111 -137 282q0 170 139.5 287t339.5 117q240 0 369 -156q49 -59 67.5 -113.5t24.5 -154.5h-346q-18 131 -125 131q-49 0 -85 -31t-36 -74q0 -82 117 -135l168 -76 q172 -78 244.5 -168t72.5 -225q0 -197 -125.5 -307.5t-351.5 -110.5q-229 0 -362 117t-133 316z" />
<glyph unicode="T" horiz-adv-x="915" d="M14 1059v307h889v-307h-270v-1059h-348v1059h-271z" />
<glyph unicode="U" horiz-adv-x="1253" d="M102 539v827h349v-827q0 -258 178 -258q96 0 135 57t39 201v827h348v-827q0 -279 -135 -418q-143 -147 -387 -148q-246 0 -389 146q-78 80 -108 169t-30 251z" />
<glyph unicode="V" horiz-adv-x="1232" d="M-20 1366h360l276 -958l277 958h360l-458 -1366h-359z" />
<glyph unicode="W" horiz-adv-x="1777" d="M14 1366h355l182 -889l203 889h268l201 -893l186 893h354l-362 -1366h-307l-207 883l-207 -883h-313z" />
<glyph unicode="X" horiz-adv-x="1318" d="M-20 0l477 727l-422 639h395l234 -391l227 391h393l-418 -645l473 -721h-395l-295 483l-280 -483h-389z" />
<glyph unicode="Y" horiz-adv-x="1120" d="M-20 1366h378l203 -549l205 549h375l-406 -868v-498h-348v498z" />
<glyph unicode="Z" horiz-adv-x="935" d="M35 0v229l471 830h-471v307h860v-283l-436 -776h436v-307h-860z" />
<glyph unicode="[" horiz-adv-x="761" d="M123 96v715q0 172 48 280.5t157 190.5q66 49 112.5 66.5t163.5 37.5l35 7v-301q-109 -4 -156 -61.5t-47 -184.5v-785q0 -127 47 -185t156 -62v-301l-31 6q-188 37 -277 102.5t-138 149.5q-70 121 -70 325z" />
<glyph unicode="\" d="M55 1536h254l627 -1706h-252z" />
<glyph unicode="]" horiz-adv-x="761" d="M123 -186q109 4 156 62t47 185v785q0 127 -47.5 184t-155.5 62v301l31 -4q166 -23 280 -107q86 -63 135 -147q70 -121 70 -324v-715q0 -172 -48 -282.5t-157 -190.5q-66 -49 -113.5 -66.5t-162.5 -37.5q-10 0 -35 -6v301z" />
<glyph unicode="^" d="M12 688l330 684h340l330 -684h-271l-229 477l-229 -477h-271z" />
<glyph unicode="_" d="M0 -96h1024v-234h-1024v234z" />
<glyph unicode="`" d="M182 1380l123 187l400 -303l-105 -152z" />
<glyph unicode="a" horiz-adv-x="1284" d="M55 512q0 242 147.5 395.5t379.5 153.5q227 0 311 -146v109h289v-1024h-289v111q-72 -145 -318 -146q-231 0 -375.5 151.5t-144.5 395.5zM362 512q0 -111 74 -185.5t182 -74.5q113 0 184.5 73.5t71.5 188.5q0 111 -72.5 184.5t-185.5 73.5q-109 0 -181.5 -74.5 t-72.5 -185.5z" />
<glyph unicode="b" horiz-adv-x="1265" d="M102 0v1366h308v-424q111 117 295 117q219 0 362 -152.5t143 -388.5q0 -242 -145 -397.5t-373 -155.5q-92 0 -156.5 32t-142.5 114v-111h-291zM397 512q0 -113 71 -186.5t179 -73.5q109 0 182.5 74.5t73.5 185.5q0 109 -73 184.5t-179 75.5q-109 0 -181.5 -74.5 t-72.5 -185.5z" />
<glyph unicode="c" horiz-adv-x="1175" d="M55 514q0 229 157 387t384 158q201 0 352.5 -119t190.5 -311h-310q-61 143 -223 143q-106 0 -175 -74.5t-69 -189.5q0 -113 69 -184.5t175 -71.5q137 0 225 137h310q-45 -188 -194.5 -306t-342.5 -118q-229 0 -389 160t-160 389z" />
<glyph unicode="d" horiz-adv-x="1275" d="M55 514q0 236 144.5 390.5t363.5 154.5q180 0 303 -121v428h308v-1366h-291v109q-117 -143 -314 -144q-225 0 -369.5 154.5t-144.5 394.5zM362 514q0 -115 73 -188.5t186 -73.5q115 0 188.5 74.5t73.5 189.5q0 109 -73.5 182.5t-184.5 73.5q-115 0 -189 -72.5t-74 -185.5 z" />
<glyph unicode="e" horiz-adv-x="1183" d="M55 510q0 229 156 389t377 160q229 0 384.5 -161t155.5 -398q0 -37 -8 -84h-768q10 -86 72.5 -138.5t153.5 -52.5q102 0 188 80l14 14h312q-72 -166 -204 -260t-294 -94q-225 0 -382 159t-157 386zM360 621h461q-16 80 -79.5 129t-151.5 49q-191 0 -230 -178z" />
<glyph unicode="f" horiz-adv-x="602" d="M16 793v231h113v53q0 162 97.5 239t293.5 77h47v-232h-37q-94 0 -94 -96v-41h131v-231h-131v-793h-307v793h-113z" />
<glyph unicode="g" horiz-adv-x="1269" d="M55 506q0 238 148.5 395.5t374.5 157.5q195 0 299 -129v94h290v-901q0 -145 -8 -199q-18 -106 -82 -180q-174 -201 -489 -201q-211 0 -350.5 98.5t-161.5 262.5h354q43 -100 180 -101q119 0 183.5 73t64.5 204v33q-33 -63 -120 -105.5t-185 -42.5q-209 0 -353.5 158 t-144.5 383zM362 516q0 -115 71 -189.5t177 -74.5q109 0 179.5 71.5t70.5 184.5q0 115 -69.5 189.5t-178.5 74.5q-106 0 -178 -73.5t-72 -182.5z" />
<glyph unicode="h" horiz-adv-x="1146" d="M102 0v1366h308v-434q76 127 268 127q174 0 276 -111q66 -72 86 -176q10 -59 11 -201v-571h-308v559q0 213 -163 213q-170 0 -170 -205v-567h-308z" />
<glyph unicode="i" horiz-adv-x="512" d="M102 0v1024h308v-1024h-308zM102 1133v233h308v-233h-308z" />
<glyph unicode="j" horiz-adv-x="512" d="M-47 -143h41q61 0 84.5 33.5t23.5 121.5v1012h308v-1001q0 -223 -80 -306q-90 -92 -301 -92h-76v232zM102 1133v233h308v-233h-308z" />
<glyph unicode="k" horiz-adv-x="1046" d="M102 0v1366h308v-713l288 371h363l-387 -449l377 -575h-349l-292 494v-494h-308z" />
<glyph unicode="l" horiz-adv-x="512" d="M102 0v1366h308v-1366h-308z" />
<glyph unicode="m" horiz-adv-x="1769" d="M102 0v1024h291v-109q92 143 281 144q197 0 297 -182q113 182 325 182q158 0 265 -103q80 -76 100 -184q12 -57 12 -213v-559h-307v545q0 121 -35 174t-117 53q-168 0 -167 -213v-559h-308v559q0 213 -157 213q-172 0 -172 -213v-559h-308z" />
<glyph unicode="n" horiz-adv-x="1146" d="M102 0v1024h291v-109q100 143 281 144q168 0 274 -105q59 -59 81 -123.5t22 -189.5v-641h-308v559q0 213 -159 213q-174 0 -174 -201v-571h-308z" />
<glyph unicode="o" horiz-adv-x="1218" d="M55 506q0 240 157 396.5t396 156.5q238 0 395.5 -155.5t157.5 -391.5t-156.5 -391.5t-394.5 -155.5q-240 0 -397.5 153.5t-157.5 387.5zM362 514q0 -113 71 -187.5t177 -74.5q104 0 174 74.5t70 185.5q0 109 -71 184.5t-173 75.5q-104 0 -176 -74.5t-72 -183.5z" />
<glyph unicode="p" horiz-adv-x="1275" d="M102 -342v1366h289v-113q115 147 324 148q221 0 361.5 -155.5t140.5 -399.5q0 -229 -143.5 -384t-356.5 -155q-190 0 -307 129v-436h-308zM395 516q0 -111 75 -187.5t183 -76.5q109 0 182.5 74.5t73.5 185.5t-73.5 185.5t-184.5 74.5q-106 0 -181 -74.5t-75 -181.5z" />
<glyph unicode="q" horiz-adv-x="1275" d="M55 494q0 248 145.5 406.5t372.5 158.5q201 0 310 -148v113h291v-1366h-308v446q-125 -139 -315 -139q-213 0 -354.5 150.5t-141.5 378.5zM362 510q0 -109 76 -183.5t185 -74.5q106 0 181 75.5t75 182.5q0 113 -75 187.5t-186 74.5q-109 0 -182.5 -74.5t-73.5 -187.5z " />
<glyph unicode="r" horiz-adv-x="661" d="M102 0v1024h291v-109q82 143 248 144h8v-307q-131 -2 -186 -45t-55 -142v-565h-306z" />
<glyph unicode="s" horiz-adv-x="911" d="M31 305h305q12 -94 117 -94q43 0 74.5 22.5t31.5 55.5q0 72 -119 102l-180 47q-94 25 -155.5 105t-61.5 178q0 141 120 239.5t294 98.5q162 0 262 -86t115 -236h-299q-8 76 -89 76q-96 0 -96 -65q0 -70 159 -113t213 -71.5t97 -90.5q47 -68 47 -160q0 -150 -121.5 -249 t-304.5 -99q-172 0 -282.5 91t-126.5 249z" />
<glyph unicode="t" horiz-adv-x="600" d="M-20 793v231h149v342h307v-342h148v-231h-148v-793h-307v793h-149z" />
<glyph unicode="u" horiz-adv-x="1150" d="M96 412v612h307v-571q0 -201 164 -201q174 0 174 201v571h308v-1024h-291v109q-72 -143 -271 -144q-186 0 -299 129q-59 68 -77 148q-14 57 -15 170z" />
<glyph unicode="v" horiz-adv-x="989" d="M-20 1024h317l197 -639l198 639h318l-369 -1024h-293z" />
<glyph unicode="w" horiz-adv-x="1542" d="M0 1024h315l156 -637l170 637h260l170 -637l156 637h315l-313 -1024h-285l-174 662l-172 -662h-285z" />
<glyph unicode="x" horiz-adv-x="1116" d="M-20 0l389 549l-344 475h366l166 -268l164 268h362l-344 -475l398 -549h-375l-205 317l-211 -317h-366z" />
<glyph unicode="y" horiz-adv-x="1015" d="M-20 1024h325l207 -594l199 594h325l-514 -1366h-323l161 393z" />
<glyph unicode="z" horiz-adv-x="829" d="M35 0v211l430 582h-430v231h762v-233l-402 -560h402v-231h-762z" />
<glyph unicode="{" d="M248 391v219q113 25 112 158v319q0 160 71 227.5t239 67.5h20q6 -2 66 -4h67v-229h-41q-92 0 -118 -12q-45 -23 -46 -105v-282q0 -104 -24.5 -155.5t-97.5 -102.5q70 -45 96 -100.5t26 -158.5v-282q0 -82 46 -105q27 -12 118 -12h41v-229h-67l-66 -4h-20 q-168 0 -239 68.5t-71 228.5v317q0 154 -112 176z" />
<glyph unicode="|" d="M383 -512v2048h258v-2048h-258z" />
<glyph unicode="}" d="M248 -166h41q90 0 117 12q45 23 45 105v282q0 104 24.5 155.5t97.5 103.5q-70 45 -96 100t-26 158v282q0 84 -48 105q-25 12 -118 12h-37v229h65l66 4h20q168 0 239 -68.5t71 -228.5v-317q0 -154 112 -176v-219q-113 -25 -112 -158v-319q0 -160 -72 -227.5t-240 -67.5 h-18l-66 4h-65v229z" />
<glyph unicode="~" horiz-adv-x="1366" d="M184 1243q4 8 17 35q61 139 124.5 193.5t168.5 54.5q61 0 213 -56q135 -49 178 -49q51 0 81.5 22.5t67.5 86.5l148 -86q-53 -111 -92 -159t-99 -79q-68 -35 -135 -35q-49 0 -207 58q-129 47 -172 47q-51 0 -80.5 -25.5t-68.5 -101.5z" />
<glyph unicode="&#xa1;" horiz-adv-x="604" d="M143 -342v915h318v-915h-318zM143 711v313h318v-313h-318z" />
<glyph unicode="&#xa2;" horiz-adv-x="1126" d="M109 688q0 156 89 277.5t238 169.5v194h242v-186q137 -39 232.5 -141.5t107.5 -227.5h-318q-41 74 -131 74q-66 0 -111.5 -46t-45.5 -112q0 -63 46 -108t111 -45q70 0 125 63h324q-25 -133 -114 -227t-214 -121v-195h-254v195q-154 51 -240.5 168t-86.5 268z" />
<glyph unicode="&#xa3;" horiz-adv-x="1126" d="M16 524v246h90q-51 98 -51 174q0 184 144.5 316.5t347.5 132.5q279 0 411 -217q53 -88 70 -238h-321q-14 147 -142 147q-70 0 -116 -48t-46 -119q0 -72 62 -148h289v-246h-142q59 -70 60 -127q0 -61 -72 -125h78q149 0 149 127q0 29 -12 66h297q20 -63 21 -117 q0 -150 -116 -249t-288 -99h-655v272h90q168 0 168 99q0 51 -33 94l-45 59h-238z" />
<glyph unicode="&#xa4;" horiz-adv-x="1366" d="M43 1266l141 141l213 -213q137 90 287 90t283 -88l209 209l139 -141l-207 -207q94 -152 94 -287q0 -141 -90 -278l209 -211l-139 -142l-209 209q-137 -92 -291 -92q-139 0 -287 92l-209 -209l-141 142l211 208q-92 133 -92 283q0 143 92 281zM401 770q0 -117 83 -200 t200 -83t199 83t82 200q0 119 -82 202t-199 83q-119 0 -201 -83t-82 -202z" />
<glyph unicode="&#xa5;" horiz-adv-x="1126" d="M23 1366h346l196 -549l197 549h342l-184 -432h120v-215h-213l-69 -162h227v-215h-254v-342h-334v342h-256v215h230l-78 182h-207v215h113z" />
<glyph unicode="&#xa7;" horiz-adv-x="1126" d="M18 514q0 178 177 309q-57 86 -58 205q0 164 122 264.5t321 100.5q188 0 312 -106.5t132 -272.5h-301q-31 106 -162 106q-129 0 -129 -96q0 -61 109 -111l336 -151q231 -104 231 -307q0 -158 -147 -281l-13 -10q96 -129 96 -262q0 -176 -129 -289t-333 -113 q-219 0 -360.5 119t-155.5 318h303q25 -158 206 -158q74 0 121 33.5t47 87.5q0 43 -33.5 73.5t-127.5 73.5l-316 146q-141 66 -194.5 143.5t-53.5 177.5zM297 578q0 -72 98 -117l373 -172q68 45 68 112q0 66 -125 123l-340 154q-74 -33 -74 -100z" />
<glyph unicode="&#xa8;" d="M160 1161v279h295v-279h-295zM569 1161v279h295v-279h-295z" />
<glyph unicode="&#xa9;" horiz-adv-x="1529" d="M55 682q0 295 208 503t501 208q295 0 503 -208t208 -503q0 -293 -208 -501t-503 -208q-293 0 -501 208t-208 501zM180 682q0 -244 171 -416t413 -172t413 172t171 416t-171 417t-413 173t-413 -173t-171 -417zM330 684q0 178 128 301t312 123q158 0 283 -95t147 -233 h-225q-57 143 -205 144q-96 0 -160.5 -69t-64.5 -171t65.5 -173t159.5 -71q137 0 205 140h225q-37 -145 -154.5 -234.5t-271.5 -89.5q-186 0 -315 124t-129 304z" />
<glyph unicode="&#xaa;" horiz-adv-x="751" d="M47 1094q0 127 79 208.5t204 81.5q115 0 162 -65v47h161v-547h-161v47q-51 -66 -164 -65q-125 0 -203 81t-78 212zM61 608v68h578v-68h-578zM219 1092q0 -55 38 -93t93 -38q57 0 94 37.5t37 95.5q0 57 -38 94t-95 37q-55 0 -92 -38t-37 -95z" />
<glyph unicode="&#xab;" horiz-adv-x="753" d="M68 412v235l237 242v-273l-94 -84l94 -86v-270zM403 412v235l238 242v-273l-96 -84l96 -86v-270z" />
<glyph unicode="&#xac;" d="M68 313v234h888v-547h-260v313h-628z" />
<glyph unicode="&#xad;" horiz-adv-x="518" d="M0 395v260h518v-260h-518z" />
<glyph unicode="&#xae;" horiz-adv-x="1050" d="M92 1141q0 180 127 307t307 127t307.5 -127t127.5 -307t-127 -307t-308 -127q-180 0 -307 127t-127 307zM172 1141q0 -147 103.5 -251t250.5 -104q145 0 249 104t104 251q0 145 -103.5 248.5t-249.5 103.5q-147 0 -250.5 -103.5t-103.5 -248.5zM352 915v451h154 q207 0 207 -158q0 -119 -109 -143l127 -150h-149l-103 138v-138h-127zM475 1143h41q76 0 76 57t-76 57h-41v-114z" />
<glyph unicode="&#xaf;" d="M184 1214v179h656v-179h-656z" />
<glyph unicode="&#xb0;" d="M197 1044q0 127 92 218.5t223 91.5t223 -91.5t92 -218.5q0 -129 -92 -220t-223 -91t-223 91t-92 220zM352 1044q0 -66 47 -111.5t113 -45.5t113 46t47 111q0 63 -47 109.5t-113 46.5t-113 -46t-47 -110z" />
<glyph unicode="&#xb1;" d="M68 104v240h888v-240h-888zM68 729v240h315v315h258v-315h315v-240h-315v-315h-258v315h-315z" />
<glyph unicode="&#xb4;" d="M319 1264l400 303l123 -187l-418 -268z" />
<glyph unicode="&#xb6;" horiz-adv-x="1355" d="M55 1004q0 362 471 362h680v-201h-149v-1353h-219v1353h-172v-1353h-222v845h-14q-6 -2 -8 -2q-164 0 -265.5 96.5t-101.5 252.5z" />
<glyph unicode="&#xb7;" horiz-adv-x="354" d="M0 520v352h354v-352h-354z" />
<glyph unicode="&#xb8;" d="M326 -279h123q23 -51 63 -51q72 0 72 70q0 63 -64 63q-29 0 -55 -28l-90 65l76 160h124l-53 -106q29 6 41 6q59 0 103.5 -45t44.5 -107q0 -80 -57.5 -132t-141.5 -52q-168 0 -186 157z" />
<glyph unicode="&#xba;" horiz-adv-x="751" d="M78 1090q0 127 85 209.5t212 82.5q129 0 213 -81.5t84 -208.5q0 -125 -84 -208t-211 -83q-129 0 -214 82t-85 207zM92 608v68h567v-68h-567zM250 1094q0 -57 36 -95t91 -38q53 0 89 37.5t36 93.5q0 55 -37 94t-90 39t-89 -38t-36 -93z" />
<glyph unicode="&#xbb;" horiz-adv-x="722" d="M82 176v273l94 83l-94 86v271l237 -242v-237zM416 176v273l96 83l-96 86v271l237 -242v-237z" />
<glyph unicode="&#xbf;" horiz-adv-x="1015" d="M61 23q0 102 54 190q39 63 155 172q131 121 142 205h317q0 -84 -37 -149.5t-151 -176.5q-125 -121 -125 -203q0 -114 106 -114q68 0 95.5 40t31.5 138h338v-35q0 -201 -136 -330t-347 -129q-186 0 -314.5 114t-128.5 278zM412 711v313h317v-313h-317z" />
<glyph unicode="&#xc0;" horiz-adv-x="1351" d="M-6 0l547 1366h276l543 -1366h-379l-66 199h-475l-71 -199h-375zM379 1675l102 234l494 -267l-92 -188zM537 475h284l-141 467z" />
<glyph unicode="&#xc1;" horiz-adv-x="1351" d="M-6 0l547 1366h276l543 -1366h-379l-66 199h-475l-71 -199h-375zM379 1642l491 267l105 -234l-506 -221zM537 475h284l-141 467z" />
<glyph unicode="&#xc2;" horiz-adv-x="1351" d="M-6 0l547 1366h276l543 -1366h-379l-66 199h-475l-71 -199h-375zM260 1501l268 307h303l263 -307h-324l-94 131l-90 -131h-326zM537 475h284l-141 467z" />
<glyph unicode="&#xc3;" horiz-adv-x="1351" d="M-6 0l547 1366h276l543 -1366h-379l-66 199h-475l-71 -199h-375zM254 1708q121 82 246 82q55 0 151 -21q107 -22 152 -22q74 0 164 43l131 -180q-125 -84 -250 -84q-45 0 -100 12l-66 14q-94 20 -133 21q-57 0 -152 -47zM537 475h284l-141 467z" />
<glyph unicode="&#xc4;" horiz-adv-x="1351" d="M-6 0l547 1366h276l543 -1366h-379l-66 199h-475l-71 -199h-375zM293 1501v307h321v-307h-321zM537 475h284l-141 467zM737 1501v307h322v-307h-322z" />
<glyph unicode="&#xc5;" horiz-adv-x="1351" d="M-6 0l547 1366h276l543 -1366h-379l-66 199h-475l-71 -199h-375zM440 1696q0 96 69 164.5t167 68.5t167.5 -68.5t69.5 -164.5t-69.5 -166t-167.5 -70t-167 70t-69 166zM537 475h284l-141 467zM592 1696q0 -37 24.5 -62.5t59.5 -25.5t60.5 25.5t25.5 62.5t-25.5 62.5 t-60.5 25.5t-59.5 -25.5t-24.5 -62.5z" />
<glyph unicode="&#xc6;" horiz-adv-x="1757" d="M-55 0l950 1366h778v-307h-426v-211h412v-307h-412v-234h426v-307h-760v227h-397l-147 -227h-424zM657 498h256v372z" />
<glyph unicode="&#xc7;" horiz-adv-x="1507" d="M59 686q0 297 207 502t508 205q397 0 606 -330q72 -113 88 -217h-364q-41 111 -130 175t-202 64q-156 0 -260 -114.5t-104 -284.5q0 -172 105 -288.5t261 -116.5q219 0 330 229h364q-57 -231 -231 -381q-181 -156 -410 -156h-6l-37 -69q18 4 39 4q70 0 115 -45t45 -115 q0 -94 -64.5 -155.5t-160.5 -61.5q-188 0 -207 186h143q25 -51 74 -51q68 0 68 68t-70 67q-31 0 -59 -28l-105 63l74 144h-6q-262 37 -436.5 238.5t-174.5 467.5z" />
<glyph unicode="&#xc8;" horiz-adv-x="960" d="M117 0v1366h757v-307h-423v-211h411v-307h-411v-234h423v-307h-757zM199 1675l102 234l492 -267l-91 -188z" />
<glyph unicode="&#xc9;" horiz-adv-x="960" d="M117 0v1366h757v-307h-423v-211h411v-307h-411v-234h423v-307h-757zM199 1642l491 267l103 -234l-504 -221z" />
<glyph unicode="&#xca;" horiz-adv-x="960" d="M117 0v1366h757v-307h-423v-211h411v-307h-411v-234h423v-307h-757zM121 1501l272 307h213l264 -307h-288l-86 119l-84 -119h-291z" />
<glyph unicode="&#xcb;" horiz-adv-x="960" d="M113 1501v307h321v-307h-321zM117 0v1366h757v-307h-423v-211h411v-307h-411v-234h423v-307h-757zM557 1501v307h322v-307h-322z" />
<glyph unicode="&#xcc;" horiz-adv-x="579" d="M-8 1675l104 234l492 -267l-90 -188zM117 0v1366h348v-1366h-348z" />
<glyph unicode="&#xcd;" horiz-adv-x="579" d="M-8 1642l491 267l105 -234l-504 -221zM117 0v1366h348v-1366h-348z" />
<glyph unicode="&#xce;" horiz-adv-x="579" d="M-14 1501l196 307h221l191 -307h-221l-82 158l-80 -158h-225zM117 0v1366h348v-1366h-348z" />
<glyph unicode="&#xcf;" horiz-adv-x="579" d="M10 1501v307h228v-307h-228zM117 0v1366h348v-1366h-348zM342 1501v307h227v-307h-227z" />
<glyph unicode="&#xd1;" horiz-adv-x="1384" d="M117 0v1366h299l532 -860l-14 860h334v-1366h-303l-529 829l15 -829h-334zM270 1708q121 82 244 82q57 0 154 -21q106 -22 151 -22q74 0 164 43l131 -180q-127 -84 -250 -84q-45 0 -100 12l-66 14q-94 20 -133 21q-57 0 -151 -47z" />
<glyph unicode="&#xd2;" horiz-adv-x="1558" d="M59 680q0 303 206 508t511 205t515 -206t210 -505t-210 -504t-515 -205q-303 0 -510 204t-207 503zM408 686q0 -174 107.5 -289.5t268.5 -115.5q156 0 262.5 115.5t106.5 283.5q0 172 -107.5 288.5t-265.5 116.5q-160 0 -266 -114.5t-106 -284.5zM481 1675l105 234 l491 -267l-90 -188z" />
<glyph unicode="&#xd3;" horiz-adv-x="1558" d="M59 680q0 303 206 508t511 205t515 -206t210 -505t-210 -504t-515 -205q-303 0 -510 204t-207 503zM408 686q0 -174 107.5 -289.5t268.5 -115.5q156 0 262.5 115.5t106.5 283.5q0 172 -107.5 288.5t-265.5 116.5q-160 0 -266 -114.5t-106 -284.5zM481 1642l492 267 l104 -234l-504 -221z" />
<glyph unicode="&#xd4;" horiz-adv-x="1558" d="M59 680q0 303 206 508t511 205t515 -206t210 -505t-210 -504t-515 -205q-303 0 -510 204t-207 503zM362 1501l271 307h303l260 -307h-324l-92 131l-92 -131h-326zM408 686q0 -174 107.5 -289.5t268.5 -115.5q156 0 262.5 115.5t106.5 283.5q0 172 -107.5 288.5 t-265.5 116.5q-160 0 -266 -114.5t-106 -284.5z" />
<glyph unicode="&#xd5;" horiz-adv-x="1558" d="M59 680q0 303 206 508t511 205t515 -206t210 -505t-210 -504t-515 -205q-303 0 -510 204t-207 503zM358 1708q121 82 244 82q57 0 152 -21q104 -22 151 -22q74 0 164 43l131 -180q-125 -84 -250 -84q-43 0 -98 12l-66 14q-94 20 -135 21q-55 0 -151 -47zM408 686 q0 -174 107.5 -289.5t268.5 -115.5q156 0 262.5 115.5t106.5 283.5q0 172 -107.5 288.5t-265.5 116.5q-160 0 -266 -114.5t-106 -284.5z" />
<glyph unicode="&#xd6;" horiz-adv-x="1558" d="M59 680q0 303 206 508t511 205t515 -206t210 -505t-210 -504t-515 -205q-303 0 -510 204t-207 503zM397 1501v307h322v-307h-322zM408 686q0 -174 107.5 -289.5t268.5 -115.5q156 0 262.5 115.5t106.5 283.5q0 172 -107.5 288.5t-265.5 116.5q-160 0 -266 -114.5 t-106 -284.5zM842 1501v307h319v-307h-319z" />
<glyph unicode="&#xd7;" horiz-adv-x="1124" d="M117 129l356 354l-356 355l90 90l356 -355l355 353l90 -88l-357 -355l357 -354l-90 -90l-355 356l-356 -356z" />
<glyph unicode="&#xd8;" horiz-adv-x="1558" d="M59 682q0 303 207 507t514 204q100 0 156 -11q63 -14 151 -55l121 160l217 -156l-118 -160l4 -6q190 -207 190 -483q0 -299 -210 -504t-515 -205q-160 0 -303 62l-6 4l-115 -156l-217 160l113 154l-4 6q-184 201 -185 479zM408 688q0 -117 49 -211l438 590 q-51 18 -115 18q-158 0 -265 -114.5t-107 -282.5zM662 299q53 -18 120 -18q158 0 264.5 115.5t106.5 283.5q0 109 -53 211z" />
<glyph unicode="&#xd9;" horiz-adv-x="1253" d="M102 539v827h349v-827q0 -258 178 -258q96 0 135 57t39 201v827h348v-827q0 -279 -135 -418q-143 -147 -387 -148q-246 0 -389 146q-78 80 -108 169t-30 251zM330 1675l102 234l492 -267l-90 -188z" />
<glyph unicode="&#xda;" horiz-adv-x="1253" d="M102 539v827h349v-827q0 -258 178 -258q96 0 135 57t39 201v827h348v-827q0 -279 -135 -418q-143 -147 -387 -148q-246 0 -389 146q-78 80 -108 169t-30 251zM330 1642l491 267l103 -234l-504 -221z" />
<glyph unicode="&#xdb;" horiz-adv-x="1253" d="M102 539v827h349v-827q0 -258 178 -258q96 0 135 57t39 201v827h348v-827q0 -279 -135 -418q-143 -147 -387 -148q-246 0 -389 146q-78 80 -108 169t-30 251zM209 1501l270 307h303l262 -307h-323l-94 131l-90 -131h-328z" />
<glyph unicode="&#xdc;" horiz-adv-x="1253" d="M102 539v827h349v-827q0 -258 178 -258q96 0 135 57t39 201v827h348v-827q0 -279 -135 -418q-143 -147 -387 -148q-246 0 -389 146q-78 80 -108 169t-30 251zM244 1501v307h321v-307h-321zM688 1501v307h322v-307h-322z" />
<glyph unicode="&#xdf;" horiz-adv-x="1263" d="M96 0v788q0 176 23.5 265.5t93.5 167.5q160 180 405 180q180 0 307.5 -112.5t127.5 -272.5q0 -150 -131 -240q127 -29 206.5 -129t79.5 -227q0 -188 -139 -321.5t-338 -133.5q-102 0 -174 34t-154 120v-119h-307zM403 385h170q39 -133 160 -133q72 0 120 48t48 120 q0 78 -56.5 125t-150.5 47h-166v229h62q156 0 155 144q0 66 -45 107.5t-114 41.5q-183 0 -183 -240v-489z" />
<glyph unicode="&#xe0;" horiz-adv-x="1284" d="M55 512q0 242 147.5 395.5t379.5 153.5q227 0 311 -146v109h289v-1024h-289v111q-72 -145 -318 -146q-231 0 -375.5 151.5t-144.5 395.5zM362 512q0 -111 74 -185.5t182 -74.5q113 0 184.5 73.5t71.5 188.5q0 111 -72.5 184.5t-185.5 73.5q-109 0 -181.5 -74.5 t-72.5 -185.5zM379 1380l121 187l401 -303l-104 -152z" />
<glyph unicode="&#xe1;" horiz-adv-x="1284" d="M55 512q0 242 147.5 395.5t379.5 153.5q227 0 311 -146v109h289v-1024h-289v111q-72 -145 -318 -146q-231 0 -375.5 151.5t-144.5 395.5zM362 512q0 -111 74 -185.5t182 -74.5q113 0 184.5 73.5t71.5 188.5q0 111 -72.5 184.5t-185.5 73.5q-109 0 -181.5 -74.5 t-72.5 -185.5zM385 1264l399 303l121 -187l-416 -268z" />
<glyph unicode="&#xe2;" horiz-adv-x="1284" d="M55 512q0 242 147.5 395.5t379.5 153.5q227 0 311 -146v109h289v-1024h-289v111q-72 -145 -318 -146q-231 0 -375.5 151.5t-144.5 395.5zM248 1147l272 305h213l266 -305h-290l-84 119l-84 -119h-293zM362 512q0 -111 74 -185.5t182 -74.5q113 0 184.5 73.5t71.5 188.5 q0 111 -72.5 184.5t-185.5 73.5q-109 0 -181.5 -74.5t-72.5 -185.5z" />
<glyph unicode="&#xe3;" horiz-adv-x="1284" d="M55 512q0 242 147.5 395.5t379.5 153.5q227 0 311 -146v109h289v-1024h-289v111q-72 -145 -318 -146q-231 0 -375.5 151.5t-144.5 395.5zM260 1343q129 72 215 72q49 0 141.5 -18.5t139.5 -18.5q66 0 151 37l117 -155q-113 -78 -227 -78q-43 0 -92 10l-60 12 q-80 16 -121 17q-55 0 -145 -41zM362 512q0 -111 74 -185.5t182 -74.5q113 0 184.5 73.5t71.5 188.5q0 111 -72.5 184.5t-185.5 73.5q-109 0 -181.5 -74.5t-72.5 -185.5z" />
<glyph unicode="&#xe4;" horiz-adv-x="1284" d="M55 512q0 242 147.5 395.5t379.5 153.5q227 0 311 -146v109h289v-1024h-289v111q-72 -145 -318 -146q-231 0 -375.5 151.5t-144.5 395.5zM309 1161v279h293v-279h-293zM362 512q0 -111 74 -185.5t182 -74.5q113 0 184.5 73.5t71.5 188.5q0 111 -72.5 184.5t-185.5 73.5 q-109 0 -181.5 -74.5t-72.5 -185.5zM719 1161v279h293v-279h-293z" />
<glyph unicode="&#xe5;" horiz-adv-x="1284" d="M55 512q0 242 147.5 395.5t379.5 153.5q227 0 311 -146v109h289v-1024h-289v111q-72 -145 -318 -146q-231 0 -375.5 151.5t-144.5 395.5zM362 512q0 -111 74 -185.5t182 -74.5q113 0 184.5 73.5t71.5 188.5q0 111 -72.5 184.5t-185.5 73.5q-109 0 -181.5 -74.5 t-72.5 -185.5zM410 1356q0 94 67.5 160.5t161.5 66.5q96 0 163.5 -66.5t67.5 -160.5t-67.5 -162t-163.5 -68q-94 0 -161.5 68t-67.5 162zM551 1356q0 -39 26.5 -65.5t61.5 -26.5q37 0 62.5 26.5t25.5 65.5q0 37 -25.5 63.5t-62.5 26.5q-35 0 -61.5 -26.5t-26.5 -63.5z" />
<glyph unicode="&#xe6;" horiz-adv-x="2004" d="M55 512q0 242 147.5 394.5t379.5 152.5q209 0 292 -144v109h279v-109q92 143 277 144q219 0 369.5 -163.5t150.5 -401.5q0 -47 -8 -78h-768q12 -88 75.5 -139.5t157.5 -51.5q109 0 199 99h309q-63 -150 -164 -236q-143 -123 -321 -123q-184 0 -277 146v-111h-279v111 q-61 -145 -301 -146q-231 0 -374.5 151.5t-143.5 395.5zM362 512q0 -111 76 -185.5t185 -74.5t180 73.5t71 186.5q0 115 -72.5 187.5t-189.5 72.5q-106 0 -178 -75.5t-72 -184.5zM1180 621h467q-49 178 -230 178q-90 0 -156.5 -49t-80.5 -129z" />
<glyph unicode="&#xe7;" horiz-adv-x="1175" d="M55 514q0 229 157 387t384 158q201 0 352.5 -119t190.5 -311h-310q-61 143 -223 143q-106 0 -175 -74.5t-69 -189.5q0 -113 69 -184.5t175 -71.5q137 0 225 137h310q-41 -178 -179.5 -295t-318.5 -127l-37 -73q29 6 41 6q59 0 103.5 -45t44.5 -107q0 -80 -57.5 -132 t-141.5 -52q-164 0 -186 157h125q18 -51 61 -51q72 0 72 70q0 63 -64 63q-29 0 -55 -28l-90 65l63 131q-203 29 -335 182.5t-132 360.5z" />
<glyph unicode="&#xe8;" horiz-adv-x="1183" d="M55 510q0 229 156 389t377 160q229 0 384.5 -161t155.5 -398q0 -37 -8 -84h-768q10 -86 72.5 -138.5t153.5 -52.5q102 0 188 80l14 14h312q-72 -166 -204 -260t-294 -94q-225 0 -382 159t-157 386zM344 1380l123 187l399 -303l-104 -152zM360 621h461q-16 80 -79.5 129 t-151.5 49q-191 0 -230 -178z" />
<glyph unicode="&#xe9;" horiz-adv-x="1183" d="M55 510q0 229 156 389t377 160q229 0 384.5 -161t155.5 -398q0 -37 -8 -84h-768q10 -86 72.5 -138.5t153.5 -52.5q102 0 188 80l14 14h312q-72 -166 -204 -260t-294 -94q-225 0 -382 159t-157 386zM317 1264l400 303l123 -187l-418 -268zM360 621h461q-16 80 -79.5 129 t-151.5 49q-191 0 -230 -178z" />
<glyph unicode="&#xea;" horiz-adv-x="1183" d="M55 510q0 229 156 389t377 160q229 0 384.5 -161t155.5 -398q0 -37 -8 -84h-768q10 -86 72.5 -138.5t153.5 -52.5q102 0 188 80l14 14h312q-72 -166 -204 -260t-294 -94q-225 0 -382 159t-157 386zM217 1147l272 305h213l265 -305h-289l-86 119l-84 -119h-291zM360 621 h461q-16 80 -79.5 129t-151.5 49q-191 0 -230 -178z" />
<glyph unicode="&#xeb;" horiz-adv-x="1183" d="M55 510q0 229 156 389t377 160q229 0 384.5 -161t155.5 -398q0 -37 -8 -84h-768q10 -86 72.5 -138.5t153.5 -52.5q102 0 188 80l14 14h312q-72 -166 -204 -260t-294 -94q-225 0 -382 159t-157 386zM248 1161v279h295v-279h-295zM360 621h461q-16 80 -79.5 129t-151.5 49 q-191 0 -230 -178zM657 1161v279h295v-279h-295z" />
<glyph unicode="&#xec;" horiz-adv-x="512" d="M-4 1380l121 187l399 -303l-104 -152zM102 0v1024h308v-1024h-308z" />
<glyph unicode="&#xed;" horiz-adv-x="512" d="M-4 1264l399 303l121 -187l-416 -268zM102 0v1024h308v-1024h-308z" />
<glyph unicode="&#xee;" horiz-adv-x="512" d="M-4 1147l188 305h148l184 -305h-186l-74 145l-72 -145h-188zM102 0v1024h308v-1024h-308z" />
<glyph unicode="&#xef;" horiz-adv-x="512" d="M2 1174v251h205v-251h-205zM102 0v1024h308v-1024h-308zM305 1174v251h205v-251h-205z" />
<glyph unicode="&#xf1;" horiz-adv-x="1146" d="M102 0v1024h291v-109q100 143 281 144q168 0 274 -105q59 -59 81 -123.5t22 -189.5v-641h-308v559q0 213 -159 213q-174 0 -174 -201v-571h-308zM190 1343q129 72 218 72q45 0 139 -18.5t139 -18.5q68 0 152 37l118 -155q-113 -78 -229 -78q-45 0 -92 10l-57 12 q-76 16 -121 17q-57 0 -148 -41z" />
<glyph unicode="&#xf2;" horiz-adv-x="1218" d="M55 506q0 240 157 396.5t396 156.5q238 0 395.5 -155.5t157.5 -391.5t-156.5 -391.5t-394.5 -155.5q-240 0 -397.5 153.5t-157.5 387.5zM362 514q0 -113 71 -187.5t177 -74.5q104 0 174 74.5t70 185.5q0 109 -71 184.5t-173 75.5q-104 0 -176 -74.5t-72 -183.5zM362 1380 l121 187l400 -303l-105 -152z" />
<glyph unicode="&#xf3;" horiz-adv-x="1218" d="M55 506q0 240 157 396.5t396 156.5q238 0 395.5 -155.5t157.5 -391.5t-156.5 -391.5t-394.5 -155.5q-240 0 -397.5 153.5t-157.5 387.5zM334 1264l401 303l121 -187l-418 -268zM362 514q0 -113 71 -187.5t177 -74.5q104 0 174 74.5t70 185.5q0 109 -71 184.5t-173 75.5 q-104 0 -176 -74.5t-72 -183.5z" />
<glyph unicode="&#xf4;" horiz-adv-x="1218" d="M55 506q0 240 157 396.5t396 156.5q238 0 395.5 -155.5t157.5 -391.5t-156.5 -391.5t-394.5 -155.5q-240 0 -397.5 153.5t-157.5 387.5zM233 1147l273 305h213l266 -305h-291l-84 119l-84 -119h-293zM362 514q0 -113 71 -187.5t177 -74.5q104 0 174 74.5t70 185.5 q0 109 -71 184.5t-173 75.5q-104 0 -176 -74.5t-72 -183.5z" />
<glyph unicode="&#xf5;" horiz-adv-x="1218" d="M55 506q0 240 157 396.5t396 156.5q238 0 395.5 -155.5t157.5 -391.5t-156.5 -391.5t-394.5 -155.5q-240 0 -397.5 153.5t-157.5 387.5zM227 1343q125 72 215 72q49 0 141.5 -18.5t139.5 -18.5q66 0 149 37l119 -155q-113 -78 -227 -78q-43 0 -92 10l-60 12 q-80 16 -120 17q-57 0 -146 -41zM362 514q0 -113 71 -187.5t177 -74.5q104 0 174 74.5t70 185.5q0 109 -71 184.5t-173 75.5q-104 0 -176 -74.5t-72 -183.5z" />
<glyph unicode="&#xf6;" horiz-adv-x="1218" d="M55 506q0 240 157 396.5t396 156.5q238 0 395.5 -155.5t157.5 -391.5t-156.5 -391.5t-394.5 -155.5q-240 0 -397.5 153.5t-157.5 387.5zM258 1161v279h293v-279h-293zM362 514q0 -113 71 -187.5t177 -74.5q104 0 174 74.5t70 185.5q0 109 -71 184.5t-173 75.5 q-104 0 -176 -74.5t-72 -183.5zM668 1161v279h293v-279h-293z" />
<glyph unicode="&#xf7;" d="M68 575v240h888v-240h-888zM362 344q0 63 43.5 106.5t106.5 43.5q61 0 105.5 -43t44.5 -107q0 -59 -44.5 -103t-105.5 -44t-105.5 44t-44.5 103zM362 1044q0 61 43.5 105.5t106.5 44.5q61 0 105.5 -44t44.5 -106q0 -61 -44.5 -105t-105.5 -44t-105.5 44t-44.5 105z" />
<glyph unicode="&#xf8;" horiz-adv-x="1218" d="M55 510q0 238 157.5 393.5t399.5 155.5q113 0 224 -43l112 151l197 -141l-115 -154q131 -158 131 -362q0 -233 -157.5 -389t-393.5 -156q-109 0 -223 43l-119 -162l-194 148l112 151q-131 150 -131 365zM362 512q0 -53 25 -113l275 367q-33 6 -52 6q-104 0 -176 -75.5 t-72 -184.5zM563 258q31 -6 45 -6q106 0 176 74.5t70 187.5q0 49 -20 107z" />
<glyph unicode="&#xf9;" horiz-adv-x="1150" d="M96 412v612h307v-571q0 -201 164 -201q174 0 174 201v571h308v-1024h-291v109q-72 -143 -271 -144q-186 0 -299 129q-59 68 -77 148q-14 57 -15 170zM328 1380l123 187l399 -303l-105 -152z" />
<glyph unicode="&#xfa;" horiz-adv-x="1150" d="M96 412v612h307v-571q0 -201 164 -201q174 0 174 201v571h308v-1024h-291v109q-72 -143 -271 -144q-186 0 -299 129q-59 68 -77 148q-14 57 -15 170zM301 1264l399 303l123 -187l-417 -268z" />
<glyph unicode="&#xfb;" horiz-adv-x="1150" d="M96 412v612h307v-571q0 -201 164 -201q174 0 174 201v571h308v-1024h-291v109q-72 -143 -271 -144q-186 0 -299 129q-59 68 -77 148q-14 57 -15 170zM201 1147l272 305h213l264 -305h-288l-87 119l-83 -119h-291z" />
<glyph unicode="&#xfc;" horiz-adv-x="1150" d="M96 412v612h307v-571q0 -201 164 -201q174 0 174 201v571h308v-1024h-291v109q-72 -143 -271 -144q-186 0 -299 129q-59 68 -77 148q-14 57 -15 170zM221 1161v279h293v-279h-293zM631 1161v279h293v-279h-293z" />
<glyph unicode="&#xff;" horiz-adv-x="1015" d="M-20 1024h325l207 -594l199 594h325l-514 -1366h-323l161 393zM156 1161v279h295v-279h-295zM565 1161v279h295v-279h-295z" />
<glyph unicode="&#x152;" horiz-adv-x="1988" d="M59 680q0 303 206 508t509 205q209 0 371 -117v90h760v-307h-424v-211h409v-307h-409v-234h424v-307h-760v88q-162 -115 -377 -115q-297 0 -503 206t-206 501zM408 680q0 -168 105 -283.5t259 -115.5q162 0 266.5 115.5t104.5 291.5q0 174 -103.5 285.5t-263.5 111.5 t-264 -114.5t-104 -290.5z" />
<glyph unicode="&#x153;" horiz-adv-x="1978" d="M55 510q0 242 155 395.5t396 153.5q262 0 391 -176q55 78 163 127t222 49q225 0 383 -162t158 -395q0 -37 -10 -86h-768q10 -86 72.5 -138.5t158.5 -52.5q111 0 199 94h311q-66 -164 -202 -259t-302 -95q-244 0 -385 185q-51 -66 -92 -95q-123 -90 -305 -90 q-236 0 -390.5 154.5t-154.5 390.5zM362 514q0 -109 74 -185.5t176 -76.5t174 77t72 183t-74 183t-174 77q-102 0 -175 -75.5t-73 -182.5zM1153 621h463q-18 82 -80.5 130t-151.5 48q-88 0 -152.5 -49t-78.5 -129z" />
<glyph unicode="&#x178;" horiz-adv-x="1120" d="M-20 1366h378l203 -549l205 549h375l-406 -868v-498h-348v498zM178 1501v307h322v-307h-322zM623 1501v307h319v-307h-319z" />
<glyph unicode="&#x2c6;" d="M137 1147l273 305h213l264 -305h-289l-86 119l-84 -119h-291z" />
<glyph unicode="&#x2dc;" d="M131 1356q123 66 207 65q47 0 151 -24q95 -23 154 -23q61 0 137 33l113 -160q-106 -70 -219 -69q-51 0 -103 12l-59 14q-84 20 -129 21q-51 0 -139 -35z" />
<glyph unicode="&#x2000;" horiz-adv-x="964" />
<glyph unicode="&#x2001;" horiz-adv-x="1929" />
<glyph unicode="&#x2002;" horiz-adv-x="964" />
<glyph unicode="&#x2003;" horiz-adv-x="1929" />
<glyph unicode="&#x2004;" horiz-adv-x="643" />
<glyph unicode="&#x2005;" horiz-adv-x="482" />
<glyph unicode="&#x2006;" horiz-adv-x="321" />
<glyph unicode="&#x2007;" horiz-adv-x="321" />
<glyph unicode="&#x2008;" horiz-adv-x="241" />
<glyph unicode="&#x2009;" horiz-adv-x="385" />
<glyph unicode="&#x200a;" horiz-adv-x="107" />
<glyph unicode="&#x2010;" horiz-adv-x="518" d="M0 395v260h518v-260h-518z" />
<glyph unicode="&#x2011;" horiz-adv-x="518" d="M0 395v260h518v-260h-518z" />
<glyph unicode="&#x2012;" horiz-adv-x="518" d="M0 395v260h518v-260h-518z" />
<glyph unicode="&#x2013;" d="M68 575v240h888v-240h-888z" />
<glyph unicode="&#x2014;" horiz-adv-x="1570" d="M0 395v260h1571v-260h-1571z" />
<glyph unicode="&#x2018;" horiz-adv-x="536" d="M109 754v389q0 100 52 161.5t136 61.5h131v-166h-63q-80 0 -80 -70v-61h143v-315h-319z" />
<glyph unicode="&#x2019;" horiz-adv-x="536" d="M109 754v166h63q80 0 80 69v62h-143v315h319v-389q0 -100 -52 -161.5t-136 -61.5h-131z" />
<glyph unicode="&#x201a;" horiz-adv-x="536" d="M109 0v313h319v-387q0 -100 -52 -161.5t-136 -61.5h-131v164h63q80 0 80 70v63h-143z" />
<glyph unicode="&#x201c;" horiz-adv-x="993" d="M109 754v389q0 100 52 161.5t136 61.5h131v-166h-63q-80 0 -80 -70v-61h143v-315h-319zM565 754v389q0 100 52.5 161.5t136.5 61.5h129v-166h-64q-78 0 -78 -70v-61h142v-315h-318z" />
<glyph unicode="&#x201d;" horiz-adv-x="993" d="M109 754v166h63q80 0 80 69v62h-143v315h319v-389q0 -100 -52 -161.5t-136 -61.5h-131zM565 754v166h64q80 0 80 69v62h-144v315h318v-389q0 -100 -51.5 -161.5t-135.5 -61.5h-131z" />
<glyph unicode="&#x201e;" horiz-adv-x="993" d="M109 0v313h319v-387q0 -100 -52 -161.5t-136 -61.5h-131v164h63q80 0 80 70v63h-143zM565 0v313h318v-387q0 -100 -51.5 -161.5t-135.5 -61.5h-131v164h64q80 0 80 70v63h-144z" />
<glyph unicode="&#x2022;" horiz-adv-x="1366" d="M401 696q0 119 83 203t200 84q115 0 198 -84t83 -203t-83 -202.5t-198 -83.5q-117 0 -200 83.5t-83 202.5z" />
<glyph unicode="&#x2026;" horiz-adv-x="1609" d="M109 0v313h319v-313h-319zM645 0v313h320v-313h-320zM1182 0v313h319v-313h-319z" />
<glyph unicode="&#x202f;" horiz-adv-x="385" />
<glyph unicode="&#x2039;" horiz-adv-x="387" d="M68 412v235l237 256v-287l-94 -84l94 -86v-270z" />
<glyph unicode="&#x203a;" horiz-adv-x="387" d="M82 176v273l94 83l-94 86v271l237 -242v-237z" />
<glyph unicode="&#x205f;" horiz-adv-x="482" />
<glyph unicode="&#x2122;" horiz-adv-x="1673" d="M20 1180v186h574v-186h-170v-592h-234v592h-170zM643 588v778h293l168 -489l164 489h297v-778h-217l8 536l-176 -536h-154l-174 536l6 -536h-215z" />
<glyph unicode="&#x25fc;" d="M0 0v1024h1024v-1024h-1024z" />
</font>
</defs>
</svg>
